<?xml version="1.0" encoding="UTF-8"?>
<!-- Generator: Adobe Illustrator 19.1.0, SVG Export Plug-In . SVG Version: 6.00 Build 0)  -->
<!DOCTYPE svg PUBLIC "-//W3C//DTD SVG 1.1//EN" "http://www.w3.org/Graphics/SVG/1.1/DTD/svg11.dtd">
<svg xmlns="http://www.w3.org/2000/svg" xmlns:xlink="http://www.w3.org/1999/xlink" xmlns:dc="http://purl.org/dc/elements/1.1/" xmlns:cc="http://creativecommons.org/ns#" xmlns:rdf="http://www.w3.org/1999/02/22-rdf-syntax-ns#" version="1.1" id="DESIGNS" x="0px" y="0px" width="32px" height="32px" viewBox="0 0 32 32" style="enable-background:new 0 0 32 32;" xml:space="preserve">
<title property="dc:title">to float</title><desc property="dc:description">An icon for "float" from the Duotone series on to [icon]. Downloaded from http://www.toicon.com/icons/duotone_float by 179.179.33.241 on 2020-05-07. Licensed CC-BY, see http://toicon.com/license/ for details.</desc>
<path class="duotone_een" d="M7.742,10.516l-0.357,0.714c-0.172,0.344-0.651,0.373-0.863,0.054l-0.714-1.071  C5.544,9.816,5.932,9.31,6.383,9.461l1.071,0.357C7.742,9.914,7.878,10.243,7.742,10.516z M25.399,18.914  c0.109,7.357-16.606,7.407-16.606,0.049c0-1.096,0.484-2.115,1.308-2.974l-0.067-0.732c-1.264-0.625-2.169-1.691-2.48-2.898  c0.87-0.394,1.816-2.247,0.722-3.197c2.228-2.727,7.195-1.97,8.515,1.348c0.33,0.771,0.401,1.929-0.08,2.929  c2.005-0.062,3.747,0.333,5.162,0.998c1.058-0.354,2.306-1.043,3.145-2.395C26.667,9.384,28.314,18.211,25.399,18.914z M13,11  c0-0.552-0.448-1-1-1s-1,0.448-1,1c0,0.552,0.448,1,1,1S13,11.552,13,11z" style="fill: #0B1719;"/>
<metadata><work rdf:about=""><format>image/svg+xml</format><type rdf:resource="http://purl.org/dc/dcmitype/StillImage"/><license rdf:resource="http://creativecommons.org/licenses/by/4.0/"/><attributionname>Carol Liao</attributionname><attributionurl>http://www.toicon.com/icons/duotone_float</attributionurl></work></metadata></svg>
