<?xml version="1.0" encoding="UTF-8"?>
<!-- Generator: Adobe Illustrator 19.1.0, SVG Export Plug-In . SVG Version: 6.00 Build 0)  -->
<svg xmlns="http://www.w3.org/2000/svg" xmlns:xlink="http://www.w3.org/1999/xlink" xmlns:dc="http://purl.org/dc/elements/1.1/" xmlns:cc="http://creativecommons.org/ns#" xmlns:rdf="http://www.w3.org/1999/02/22-rdf-syntax-ns#" version="1.1" id="DESIGNS" x="0px" y="0px" width="32px" height="32px" viewBox="0 0 32 32" style="enable-background:new 0 0 32 32;" xml:space="preserve">
<title property="dc:title">to dazzle</title><desc property="dc:description">An icon for "dazzle" from the Avocado series on to [icon]. Downloaded from http://www.toicon.com/icons/avocado_dazzle by 189.27.47.28 on 2020-04-02. Licensed CC-BY, see http://toicon.com/license/ for details.</desc>
<g>
	<polygon class="avocado_twintig" points="19,25.536 12.248,29.086 13.537,21.567 8.074,16.242 15.624,15.146 19,8.305    22.376,15.146 29.926,16.242 24.463,21.567 25.752,29.086  " style="fill: #EAD13F;"/>
</g>
<g>
	<g>
		<path class="avocado_negentien" d="M19.831,9.988l2.095,0.304l-1.313,1.28L19.831,9.988z M11.111,19.203l-3.037-2.96l7.55-1.097    l2.656-5.383l-3.213-0.467L12,3.081L8.933,9.296l-6.858,0.996l4.963,4.838l-1.171,6.83L11.111,19.203z" style="fill: #E0A838;"/>
	</g>
</g>
<path class="avocado_een" d="M31,15.893l-8.292-1.205l-1.486-3.012L23,9.943l-2.837-0.412L19,7.175l-1.007,2.041l-2.594-0.377  L12,1.951L8.601,8.839L1,9.943l5.5,5.361l-1.298,7.57l5.821-3.06L13,21.742L11.584,30L19,26.101L26.416,30L25,21.742L31,15.893z   M20.851,10.641l-0.095,0.092L20.7,10.619L20.851,10.641z M3.149,10.641l6.116-0.889L12,4.211l2.735,5.542l2.792,0.406l-2.236,4.53  l-7.868,1.143l0.15-0.876L3.149,10.641z M6.53,21.046l0.825-4.808l2.915,2.842L6.53,21.046z M25.088,28.172L19,24.971l-6.088,3.201  l1.163-6.779l-4.925-4.801l6.807-0.989L19,9.434l3.044,6.168l6.807,0.989l-4.925,4.801L25.088,28.172z" style="fill: #231F20;"/>
<metadata><work rdf:about=""><format>image/svg+xml</format><type rdf:resource="http://purl.org/dc/dcmitype/StillImage"/><license rdf:resource="http://creativecommons.org/licenses/by/4.0/"/><attributionname>Shannon E Thomas</attributionname><attributionurl>http://www.toicon.com/icons/avocado_dazzle</attributionurl></work></metadata></svg>
