<?xml version="1.0" encoding="UTF-8"?>
<!-- Generator: Adobe Illustrator 19.1.0, SVG Export Plug-In . SVG Version: 6.00 Build 0)  -->
<!DOCTYPE svg PUBLIC "-//W3C//DTD SVG 1.1//EN" "http://www.w3.org/Graphics/SVG/1.1/DTD/svg11.dtd">
<svg xmlns="http://www.w3.org/2000/svg" xmlns:xlink="http://www.w3.org/1999/xlink" xmlns:dc="http://purl.org/dc/elements/1.1/" xmlns:cc="http://creativecommons.org/ns#" xmlns:rdf="http://www.w3.org/1999/02/22-rdf-syntax-ns#" version="1.1" id="DESIGNS" x="0px" y="0px" width="32px" height="32px" viewBox="0 0 32 32" style="enable-background:new 0 0 32 32;" xml:space="preserve">
<title property="dc:title">to photograph</title><desc property="dc:description">An icon for "photograph" from the Duotone series on to [icon]. Downloaded from http://www.toicon.com/icons/duotone_photograph by 177.41.129.228 on 2020-01-05. Licensed CC-BY, see http://toicon.com/license/ for details.</desc>
<g>
	<path class="duotone_een" d="M28,22v5.5c0,0.276-0.224,0.5-0.5,0.5h-23C4.224,28,4,27.776,4,27.5V22h11.025   c0.254,2.799,2.611,5,5.475,5s5.221-2.201,5.475-5H28z M28,14.5V21h-2.025c-0.254-2.799-2.611-5-5.475-5s-5.221,2.201-5.475,5H4   v-6.5C4,14.224,4.224,14,4.5,14h23C27.776,14,28,14.224,28,14.5z M8,16c0-0.552-0.448-1-1-1s-1,0.448-1,1c0,0.552,0.448,1,1,1   S8,16.552,8,16z" style="fill: #0B1719;"/>
	<path class="duotone_twee" d="M25,21.5c0,2.485-2.015,4.5-4.5,4.5S16,23.985,16,21.5c0-2.485,2.015-4.5,4.5-4.5S25,19.015,25,21.5z    M9,12.5v-1C9,11.224,8.776,11,8.5,11h-3C5.224,11,5,11.224,5,11.5v1C5,12.776,5.224,13,5.5,13h3C8.776,13,9,12.776,9,12.5z" style="fill: #555D5E;"/>
</g>
<metadata><work rdf:about=""><format>image/svg+xml</format><type rdf:resource="http://purl.org/dc/dcmitype/StillImage"/><license rdf:resource="http://creativecommons.org/licenses/by/4.0/"/><attributionname>Carol Liao</attributionname><attributionurl>http://www.toicon.com/icons/duotone_photograph</attributionurl></work></metadata></svg>
