<?xml version="1.0" encoding="UTF-8"?>
<!-- Generator: Adobe Illustrator 19.1.0, SVG Export Plug-In . SVG Version: 6.00 Build 0)  -->
<!DOCTYPE svg PUBLIC "-//W3C//DTD SVG 1.1//EN" "http://www.w3.org/Graphics/SVG/1.1/DTD/svg11.dtd">
<svg xmlns="http://www.w3.org/2000/svg" xmlns:xlink="http://www.w3.org/1999/xlink" xmlns:dc="http://purl.org/dc/elements/1.1/" xmlns:cc="http://creativecommons.org/ns#" xmlns:rdf="http://www.w3.org/1999/02/22-rdf-syntax-ns#" version="1.1" id="DESIGNS" x="0px" y="0px" width="32px" height="32px" viewBox="0 0 32 32" style="enable-background:new 0 0 32 32;" xml:space="preserve">
<title property="dc:title">to save</title><desc property="dc:description">An icon for "save" from the Duotone series on to [icon]. Downloaded from http://www.toicon.com/icons/duotone_save by 177.41.129.228 on 2020-01-05. Licensed CC-BY, see http://toicon.com/license/ for details.</desc>
<g>
	<path class="duotone_een" d="M27.5,4L26,4v6.929C26,11.52,25.539,12,24.973,12H7.027C6.461,12,6,11.52,6,10.929V4H4.5   C4.225,4,4,4.225,4,4.5v23C4,27.775,4.225,28,4.5,28l23,0c0.275,0,0.5-0.225,0.5-0.5v-23C28,4.225,27.775,4,27.5,4z M25,25.5   c0,0.276-0.224,0.5-0.5,0.5h-17C7.224,26,7,25.776,7,25.5v-1C7,24.224,7.224,24,7.5,24h17c0.276,0,0.5,0.224,0.5,0.5V25.5z    M25,21.5c0,0.276-0.224,0.5-0.5,0.5h-17C7.224,22,7,21.776,7,21.5v-1C7,20.224,7.224,20,7.5,20h17c0.276,0,0.5,0.224,0.5,0.5V21.5   z M22.458,9H20.5C20.224,9,20,8.776,20,8.5v-3C20,5.224,20.224,5,20.5,5h1.958c0.276,0,0.5,0.224,0.5,0.5v3   C22.958,8.776,22.734,9,22.458,9z" style="fill: #0B1719;"/>
	<path class="duotone_twee" d="M7,4v6.5C7,10.776,7.224,11,7.5,11h17c0.276,0,0.5-0.224,0.5-0.5V4H7z M22.958,8.5   c0,0.276-0.224,0.5-0.5,0.5H20.5C20.224,9,20,8.776,20,8.5v-3C20,5.224,20.224,5,20.5,5h1.958c0.276,0,0.5,0.224,0.5,0.5V8.5z    M24.5,22h-17C7.224,22,7,21.776,7,21.5v-1C7,20.224,7.224,20,7.5,20h17c0.276,0,0.5,0.224,0.5,0.5v1C25,21.776,24.776,22,24.5,22z    M24.5,26h-17C7.224,26,7,25.776,7,25.5v-1C7,24.224,7.224,24,7.5,24h17c0.276,0,0.5,0.224,0.5,0.5v1C25,25.776,24.776,26,24.5,26z   " style="fill: #555D5E;"/>
</g>
<metadata><work rdf:about=""><format>image/svg+xml</format><type rdf:resource="http://purl.org/dc/dcmitype/StillImage"/><license rdf:resource="http://creativecommons.org/licenses/by/4.0/"/><attributionname>Carol Liao</attributionname><attributionurl>http://www.toicon.com/icons/duotone_save</attributionurl></work></metadata></svg>
